<svg width="262" height="356" viewBox="0 0 262 356" fill="none" xmlns="http://www.w3.org/2000/svg">
    <path d="M78.7125 230.54L90.7745 211.966C81.6896 207.441 72.4671 205.074 63.1071 204.864C53.7471 204.653 44.656 207.048 35.8338 212.046C27.0729 217.085 19.0278 225.247 11.6985 236.533C6.33754 244.789 2.92901 253.257 1.47285 261.939C0.0585735 270.556 0.477195 279.035 2.72872 287.374C5.04152 295.753 9.13872 303.731 15.0203 311.31C21.0051 318.864 28.6854 325.686 38.0613 331.775L51.3898 340.43C60.7657 346.519 70.0907 350.741 79.3648 353.096C88.742 355.426 97.7491 355.912 106.386 354.552C115.065 353.128 123.137 349.888 130.602 344.833C138.066 339.778 144.626 332.898 150.28 324.191C157.19 313.55 161.133 303.319 162.108 293.5C163.083 283.68 161.52 274.55 157.418 266.11C153.419 257.644 147.321 250.063 139.125 243.365L127.063 261.939C132.727 266.901 137 272.06 139.882 277.415C142.825 282.811 144.057 288.562 143.576 294.668C143.096 300.775 140.489 307.472 135.756 314.759C131.694 321.015 126.979 325.793 121.612 329.093C116.288 332.329 110.495 334.206 104.234 334.724C98.0142 335.178 91.4703 334.321 84.6016 332.153C77.7329 329.985 70.7443 326.592 63.6357 321.976L50.1234 313.201C43.5664 308.943 37.8684 304.234 33.0294 299.074C28.2324 293.85 24.6217 288.342 22.1973 282.55C19.773 276.757 18.7914 270.756 19.2525 264.545C19.7749 258.375 22.0674 252.161 26.13 245.905C31.2815 237.973 36.5809 232.429 42.0282 229.273C47.4756 226.117 53.2108 224.798 59.2339 225.317C65.2989 225.771 71.7917 227.512 78.7125 230.54Z" fill="white"/>
    <path d="M126.749 121.152C129.2 122.744 131.09 124.797 132.42 127.311C133.853 129.8 134.296 133.343 133.75 137.94C133.308 142.512 131.489 148.667 128.295 156.403C125.69 162.964 123.655 169.115 122.191 174.858C120.769 180.536 120.123 185.756 120.255 190.518C120.428 195.215 121.481 199.429 123.414 203.16C125.348 206.891 128.367 210.09 132.473 212.756C136.395 215.303 140.689 216.808 145.354 217.27C150.062 217.668 154.853 217.066 159.727 215.464C164.643 213.796 169.417 211.074 174.048 207.297C178.679 203.519 182.901 198.696 186.712 192.827C192.157 184.443 195.396 176.369 196.43 168.605C197.465 160.841 196.649 153.847 193.982 147.622C191.377 141.438 187.225 136.495 181.526 132.794L169.904 150.691C172.661 152.481 174.762 155.083 176.204 158.496C177.751 161.884 178.314 165.78 177.893 170.183C177.515 174.522 175.797 179.045 172.74 183.753C169.515 188.719 166.162 192.273 162.681 194.413C159.303 196.529 156.05 197.58 152.923 197.566C149.837 197.488 147.069 196.653 144.618 195.061C142.779 193.867 141.334 192.47 140.282 190.87C139.333 189.245 138.812 187.164 138.717 184.627C138.683 182.13 139.172 178.963 140.182 175.126C141.193 171.289 142.769 166.582 144.91 161.004C148.642 151.233 151.022 142.738 152.05 135.52C153.078 128.302 152.602 122.125 150.623 116.989C148.644 111.853 144.989 107.554 139.658 104.091C135.307 101.266 130.695 99.6465 125.823 99.2334C120.993 98.7557 116.088 99.467 111.107 101.367C106.23 103.243 101.444 106.186 96.748 110.197C92.1555 114.183 87.8699 119.24 83.8911 125.367C77.9019 134.589 74.3968 143.407 73.3758 151.822C72.3548 160.236 73.2581 167.7 76.0859 174.212C78.9136 180.725 83.0851 185.772 88.6003 189.354L100.285 171.36C95.7956 168.078 93.0096 164.251 91.9273 159.881C90.9062 155.55 91.0281 151.136 92.2929 146.64C93.619 142.183 95.4757 138.116 97.863 134.44C101.046 129.539 104.318 125.841 107.68 123.348C111.083 120.79 114.423 119.337 117.699 118.989C120.974 118.64 123.991 119.362 126.749 121.152Z" fill="white"/>
    <path d="M191.025 22.1747C193.477 23.7665 195.367 25.8194 196.697 28.3333C198.13 30.8226 198.573 34.3656 198.027 38.9625C197.585 43.5347 195.766 49.6891 192.572 57.4255C189.967 63.986 187.932 70.1375 186.468 75.8802C185.046 81.5584 184.4 86.7783 184.532 91.5399C184.705 96.2369 185.758 100.451 187.691 104.182C189.625 107.913 192.644 111.112 196.75 113.778C200.672 116.325 204.966 117.83 209.631 118.293C214.339 118.691 219.13 118.088 224.004 116.486C228.92 114.819 233.694 112.096 238.325 108.319C242.956 104.541 247.178 99.718 250.989 93.8492C256.433 85.4651 259.673 77.3911 260.707 69.6272C261.741 61.8632 260.925 54.869 258.259 48.6446C255.654 42.4599 251.502 37.5171 245.803 33.8161L234.18 51.7128C236.938 53.5037 239.038 56.1054 240.481 59.5182C242.027 62.9062 242.59 66.8019 242.17 71.2054C241.792 75.5443 240.074 80.0677 237.017 84.7757C233.792 89.7416 230.439 93.2949 226.958 95.4354C223.58 97.5513 220.327 98.6023 217.2 98.5885C214.114 98.5102 211.346 97.6751 208.895 96.0833C207.056 94.8894 205.611 93.4924 204.559 91.8924C203.61 90.2677 203.089 88.1867 202.994 85.6495C202.96 83.1521 203.449 79.985 204.459 76.1483C205.47 72.3116 207.045 67.6043 209.187 62.0263C212.919 52.2549 215.299 43.7603 216.327 36.5425C217.355 29.3247 216.879 23.1477 214.9 18.0114C212.921 12.8752 209.266 8.5759 203.935 5.11365C199.584 2.28814 194.972 0.66879 190.1 0.255611C185.27 -0.222061 180.365 0.489287 175.384 2.38966C170.507 4.26533 165.721 7.20858 161.025 11.2194C156.432 15.2056 152.147 20.262 148.168 26.3889C142.179 35.6113 138.674 44.4297 137.653 52.8441C136.632 61.2585 137.535 68.722 140.363 75.2346C143.191 81.7472 147.362 86.7943 152.877 90.376L164.562 72.3825C160.073 69.1 157.286 65.2735 156.204 60.903C155.183 56.5723 155.305 52.1585 156.57 47.6618C157.896 43.2049 159.753 39.1384 162.14 35.4623C165.323 30.5609 168.595 26.8636 171.957 24.3703C175.36 21.8126 178.7 20.3596 181.976 20.0111C185.251 19.6627 188.268 20.3839 191.025 22.1747Z" fill="white"/>
</svg>
