<svg width="308" height="336" viewBox="0 0 308 336" fill="none" xmlns="http://www.w3.org/2000/svg">
    <path d="M151.883 171.009L97.3167 135.573C93.3899 135.643 88.4127 136.583 82.3851 138.394C76.4257 140.249 69.8786 143.906 62.7438 149.364C55.7215 154.798 48.598 163.078 41.3734 174.203C35.4785 183.28 31.6187 192.66 29.7941 202.343C28.082 212.002 28.446 221.603 30.8859 231.144C33.4383 240.661 38.0854 249.792 44.827 258.537C51.6812 267.258 60.6707 275.23 71.7957 282.455L83.3643 289.968C94.4892 297.192 105.262 302.344 115.682 305.424C126.147 308.436 136.079 309.354 145.477 308.18C154.944 307.051 163.663 303.785 171.634 298.385C179.673 293.029 186.817 285.539 193.066 275.915C200.468 264.517 204.672 253.711 205.678 243.496C206.796 233.257 205.304 223.75 201.203 214.973C197.147 206.129 191.115 198.233 183.108 191.287L170.277 211.046C175.093 215.435 178.854 220.4 181.562 225.943C184.314 231.418 185.448 237.442 184.962 244.017C184.546 250.635 181.855 257.767 176.891 265.411C172.414 272.304 167.273 277.456 161.468 280.867C155.663 284.278 149.342 286.092 142.505 286.31C135.668 286.527 128.374 285.283 120.621 282.578C112.913 279.804 104.862 275.691 96.467 270.239L84.6936 262.594C76.094 257.009 69.0584 251.033 63.5869 244.666C58.1597 238.23 54.2762 231.584 51.9364 224.728C49.6648 217.916 48.9848 211.119 49.8963 204.336C50.8521 197.485 53.391 190.886 57.513 184.538C62.0783 177.508 66.3594 172.186 70.3563 168.572C74.4215 165.001 78.0709 162.52 81.3046 161.126C84.6065 159.777 87.4292 158.942 89.7729 158.62L123.148 180.294L100.743 214.795L116.713 225.167L151.883 171.009ZM219.03 147.627L108.259 75.6913L95.8924 94.7333L206.664 166.669L219.03 147.627ZM235.115 187.184C238.187 189.178 241.379 189.941 244.691 189.472C248.048 188.935 250.923 186.824 253.317 183.138C255.666 179.521 256.403 176.07 255.528 172.785C254.698 169.431 252.747 166.758 249.676 164.763C246.741 162.857 243.573 162.207 240.172 162.812C236.883 163.393 234.064 165.493 231.715 169.11C229.322 172.796 228.528 176.259 229.335 179.5C230.254 182.716 232.181 185.278 235.115 187.184ZM266.715 74.1993L252.177 64.7586L213.284 124.649L227.822 134.09L266.715 74.1993ZM267.91 131.305L280.21 112.365L169.95 40.7613C166.196 38.3235 163.741 35.904 162.583 33.5027C161.426 31.1013 161.138 28.7798 161.721 26.5382C162.303 24.2965 163.281 22.1177 164.655 20.0019C165.675 18.4322 166.875 16.8828 168.256 15.3538C169.75 13.8009 170.887 12.6473 171.668 11.893L156.276 1.75148C154.823 2.94274 153.094 4.63393 151.089 6.82504C149.06 8.90357 146.937 11.6491 144.721 15.0617C141.707 19.7028 139.858 24.5668 139.174 29.6538C138.491 34.7409 139.545 39.8408 142.338 44.9537C145.244 50.0427 150.382 54.9806 157.753 59.7674L267.91 131.305Z" fill="white"/>
</svg>
