<svg width="399" height="502" viewBox="0 0 399 502" fill="none" xmlns="http://www.w3.org/2000/svg">
    <path d="M120.341 391.046L107.3 382.983L65.3883 447.522L78.429 455.585L120.341 391.046ZM132.021 485.277L11.0834 410.502L0.818195 426.309L121.756 501.084L132.021 485.277ZM181.273 409.436L60.3349 334.661L50.1229 350.386L171.061 425.161L181.273 409.436ZM224.357 343.092L103.419 268.318L93.3132 283.879L214.251 358.654L224.357 343.092ZM249.249 304.763L236.125 296.648L176.289 388.787L189.413 396.902L249.249 304.763ZM261.803 285.431L271.749 270.115L198.525 170.088L322.437 192.063L332.436 176.665L180.011 150.376L172.245 162.334L261.803 285.431ZM258.558 290.427L267.334 276.913L195.012 229.097L147.832 199.927L137.62 215.652L258.558 290.427ZM326.851 185.265L335.627 171.751L214.689 96.9765L204.477 112.702L251.656 141.872L326.851 185.265ZM290.546 8.31058L277.505 0.247626L238.785 59.8719L251.826 67.9348L290.546 8.31058ZM361.744 131.534L240.806 56.7596L230.541 72.5666L351.479 147.341L361.744 131.534Z" fill="white"/>
</svg>
