<svg width="215" height="213" viewBox="0 0 215 213" fill="none" xmlns="http://www.w3.org/2000/svg">
<path d="M84.6937 126.72L181.633 186.853L193.478 169.191L96.5393 109.058C87.513 103.458 78.6837 100.543 70.0514 100.312C61.419 100.081 53.3343 102.144 45.7972 106.5C38.364 110.834 31.8916 117.109 26.3801 125.327C20.8686 133.545 17.4158 141.738 16.0216 149.904C14.6274 158.071 15.6631 165.791 19.1286 173.064C22.5941 180.338 28.8086 186.755 37.7723 192.315L49.6796 174.561C43.9128 170.983 39.8794 167.005 37.5796 162.626C35.2797 158.247 34.4862 153.673 35.1989 148.904C35.9527 144.075 37.9337 139.268 41.1419 134.484C44.2678 129.823 48.0676 126.275 52.5413 123.84C57.1188 121.382 62.1332 120.324 67.5845 120.666C73.0985 121.047 78.8015 123.065 84.6937 126.72Z" fill="white"/>
<path d="M126.543 36.9243C129.051 38.4796 131 40.4702 132.391 42.8961C133.885 45.2996 134.4 48.7016 133.934 53.102C133.572 57.48 131.848 63.3583 128.764 70.737C126.253 76.9953 124.311 82.8683 122.938 88.3562C121.607 93.7828 121.052 98.7793 121.273 103.346C121.536 107.851 122.679 111.903 124.703 115.503C126.726 119.103 129.838 122.206 134.038 124.811C138.05 127.3 142.418 128.794 147.142 129.293C151.908 129.731 156.739 129.21 161.636 127.732C166.574 126.193 171.348 123.64 175.959 120.074C180.57 116.507 184.747 111.934 188.49 106.353C193.837 98.3805 196.96 90.6788 197.861 83.248C198.762 75.8172 197.806 69.1023 194.995 63.1032C192.247 57.143 187.958 52.3548 182.128 48.7387L170.714 65.7572C173.535 67.5069 175.707 70.0263 177.229 73.3152C178.855 76.5817 179.496 80.3232 179.154 84.5396C178.852 88.6948 177.2 93.0108 174.198 97.4877C171.031 102.21 167.708 105.576 164.229 107.587C160.855 109.575 157.586 110.544 154.425 110.493C151.305 110.381 148.491 109.548 145.983 107.992C144.103 106.826 142.616 105.469 141.523 103.923C140.534 102.354 139.968 100.353 139.824 97.9192C139.744 95.5245 140.179 92.4942 141.129 88.8281C142.078 85.162 143.583 80.668 145.644 75.3461C149.234 66.023 151.481 57.9078 152.385 51.0005C153.29 44.0932 152.694 38.1657 150.598 33.2181C148.502 28.2704 144.727 24.1052 139.273 20.7223C134.823 17.9616 130.132 16.3541 125.199 15.8998C120.308 15.3842 115.363 16.0076 110.365 17.77C105.47 19.5099 100.687 22.2744 96.0153 26.0635C91.4477 29.8301 87.2102 34.6264 83.3028 40.4526C77.4211 49.2225 74.0427 57.6347 73.1676 65.6892C72.2925 73.7437 73.3448 80.9095 76.3245 87.1868C79.3041 93.4641 83.6147 98.3525 89.2561 101.852L100.732 84.7415C96.1322 81.541 93.2448 77.8394 92.0692 73.6365C90.9564 69.4726 90.9973 65.2427 92.1919 60.9469C93.4492 56.69 95.25 52.8137 97.5945 49.318C100.72 44.6571 103.959 41.1516 107.31 38.8015C110.703 36.3901 114.051 35.037 117.356 34.742C120.66 34.4471 123.723 35.1745 126.543 36.9243Z" fill="white"/>
</svg>
