<svg width="473" height="594" viewBox="0 0 473 594" fill="none" xmlns="http://www.w3.org/2000/svg">
    <path d="M151.278 593.701L183.324 544.356C190.593 533.162 195.025 522.602 196.621 512.673C198.261 502.676 197.045 493.493 192.971 485.122C189.01 476.728 182.184 469.384 172.492 463.09C165.667 458.658 158.513 456.001 151.031 455.121C143.662 454.216 136.313 455.072 128.986 457.689C121.772 460.281 114.882 464.54 108.317 470.465L102.577 474.597L72.4597 520.974L88.3999 531.617L111.138 496.604C115.747 489.506 120.81 484.4 126.325 481.286C131.908 478.217 137.592 476.862 143.375 477.221C149.157 477.58 154.608 479.422 159.727 482.746C165.46 486.469 169.745 490.853 172.582 495.898C175.42 500.942 176.425 506.641 175.599 512.994C174.885 519.323 172.068 526.275 167.148 533.851L147.934 563.438L15.0492 477.141L2.21772 496.9L151.278 593.701ZM58.7958 409.778L102.829 489.899L116.295 469.387L73.7201 389.486L72.4916 388.688L58.7958 409.778ZM109.885 326.625C104.876 334.337 101.63 342.175 100.146 350.139C98.7741 358.078 99.0145 365.851 100.867 373.459C102.763 380.998 106.212 388.089 111.213 394.733C116.214 401.377 122.604 407.225 130.385 412.278L134.685 415.07C143.694 420.921 152.578 424.798 161.336 426.701C170.163 428.649 178.518 428.932 186.402 427.55C194.286 426.169 201.374 423.397 207.667 419.236C213.959 415.074 219.122 409.888 223.156 403.677C228.297 395.76 231.364 388.049 232.358 380.543C233.395 372.968 232.653 365.743 230.133 358.866C227.68 352.034 223.72 345.58 218.252 339.507C212.852 333.477 206.262 327.936 198.482 322.883L189.984 317.365L136.265 400.085L151.724 410.125L193.144 346.344L194.577 347.275C199.314 350.739 203.426 354.865 206.915 359.654C210.448 364.374 212.497 369.586 213.063 375.29C213.628 380.994 211.805 387.088 207.594 393.572C204.802 397.872 201.31 401.232 197.118 403.652C192.995 406.117 188.316 407.494 183.083 407.783C177.849 408.072 172.208 407.271 166.158 405.38C160.109 403.489 153.74 400.372 147.051 396.028L142.751 393.236C137.496 389.823 133.013 385.893 129.303 381.445C125.705 376.974 123.074 372.209 121.411 367.151C119.791 362.024 119.3 356.804 119.935 351.492C120.616 346.111 122.64 340.828 126.008 335.64C130.352 328.952 135.396 324.173 141.14 321.305C146.884 318.437 153.172 316.747 160.006 316.236L158.34 298.853C153.172 298.893 147.753 299.691 142.083 301.25C136.414 302.808 130.805 305.618 125.256 309.68C119.751 313.674 114.627 319.322 109.885 326.625ZM213.461 213.079L270.485 250.11C274.853 252.947 278.064 256.294 280.12 260.152C282.288 263.986 283.129 268.219 282.643 272.852C282.157 277.486 280.252 282.362 276.928 287.48C273.825 292.258 270.28 295.924 266.293 298.477C262.35 300.962 258.383 302.365 254.392 302.684C250.445 302.934 246.935 302.062 243.864 300.068L231.564 319.008C235.523 321.578 240.112 323.103 245.332 323.582C250.552 324.061 255.973 323.409 261.595 321.625C267.329 319.818 272.868 316.817 278.212 312.622C283.669 308.403 288.57 302.949 292.913 296.26C298.143 288.207 301.388 280.222 302.647 272.307C303.95 264.323 302.968 256.796 299.7 249.725C296.545 242.63 290.838 236.401 282.579 231.038L230.982 197.53C227.296 195.136 223.571 192.281 219.807 188.963C216.086 185.576 213.146 182.26 210.985 179.013L209.347 177.949L196.516 197.708C198.079 200.082 200.492 202.716 203.755 205.611C207.086 208.551 210.321 211.04 213.461 213.079ZM263.808 241.117L250.632 232.269L238.199 251.413C234.698 256.805 231.129 261.329 227.494 264.984C223.927 268.684 220.36 271.413 216.792 273.172C213.224 274.93 209.656 275.718 206.087 275.535C202.587 275.397 199.13 274.219 195.718 272.003C192.237 269.743 189.573 266.897 187.726 263.466C185.878 260.034 185.121 256.195 185.454 251.947C185.899 247.676 187.628 243.219 190.642 238.578C194.41 232.777 198.963 228.456 204.301 225.615C209.639 222.774 214.924 221.21 220.158 220.921C225.435 220.564 229.813 221.369 233.29 223.336L229.431 209.331C226.254 207.947 222.238 207.183 217.383 207.038C212.529 206.894 207.345 207.554 201.832 209.02C196.432 210.462 191.101 212.919 185.838 216.391C180.688 219.839 176.163 224.566 172.262 230.572C167.387 238.08 164.577 245.619 163.833 253.189C163.133 260.692 164.221 267.609 167.096 273.939C170.084 280.246 174.649 285.394 180.792 289.383C186.73 293.239 192.705 295.47 198.716 296.075C204.796 296.724 210.756 295.839 216.595 293.421C222.503 291.048 228.237 287.299 233.796 282.176C239.354 277.053 244.594 270.704 249.514 263.128L263.808 241.117ZM266.29 119.849C269.216 115.345 272.841 111.78 277.166 109.154C281.491 106.529 286.055 105.029 290.858 104.655C295.73 104.326 300.358 105.342 304.743 107.705L316.444 89.6865C309.671 85.7727 302.122 84.024 293.797 84.4403C285.586 84.8326 277.612 87.1746 269.876 91.4663C262.209 95.8022 255.826 101.895 250.729 109.744C245.322 118.07 242.069 126.292 240.97 134.409C239.916 142.457 240.619 150.191 243.078 157.61C245.582 164.961 249.479 171.81 254.77 178.157C260.173 184.48 266.594 190.057 274.034 194.888L278.334 197.681C285.773 202.512 293.445 206.087 301.351 208.407C309.369 210.704 317.246 211.5 324.979 210.798C332.758 210.027 340.109 207.523 347.033 203.286C354.001 198.981 360.189 192.666 365.596 184.339C371.225 175.671 374.37 166.943 375.032 158.154C375.762 149.41 374.286 141.222 370.605 133.592C367.037 125.938 361.541 119.458 354.119 114.153L342.418 132.171C346.769 135.482 350.056 139.46 352.279 144.106C354.546 148.683 355.531 153.592 355.233 158.833C355.047 164.049 353.315 169.183 350.035 174.233C346.267 180.035 341.938 184.161 337.047 186.613C332.268 189.04 327.18 190.151 321.783 189.945C316.498 189.716 311.168 188.583 305.794 186.549C300.533 184.491 295.479 181.888 290.633 178.741L286.333 175.949C281.487 172.802 277.02 169.221 272.931 165.208C268.842 161.194 265.618 156.82 263.259 152.085C260.944 147.283 259.889 142.183 260.095 136.785C260.414 131.364 262.479 125.719 266.29 119.849ZM433.971 74.5684L419.433 65.1277L380.54 125.018L395.077 134.459L433.971 74.5684ZM435.166 131.674L447.466 112.734L337.206 41.1304C333.452 38.6926 330.997 36.2731 329.839 33.8718C328.682 31.4705 328.394 29.149 328.976 26.9073C329.559 24.6656 330.537 22.4868 331.911 20.3711C332.931 18.8013 334.131 17.2519 335.512 15.7229C337.006 14.17 338.143 13.0164 338.924 12.2621L323.531 2.12059C322.079 3.31185 320.35 5.00304 318.344 7.19415C316.315 9.27268 314.193 12.0182 311.977 15.4308C308.963 20.0719 307.114 24.9359 306.43 30.023C305.747 35.11 306.801 40.2099 309.594 45.3228C312.499 50.4118 317.638 55.3497 325.009 60.1366L435.166 131.674Z" fill="white"/>
</svg>
